<svg id="Ebene_1" data-name="Ebene 1" xmlns="http://www.w3.org/2000/svg" viewBox="0 0 2560 1600"><path d="M561.628,743.70717v23.65714l-6.959-5.10174a125.94907,125.94907,0,0,0-76.88289-25.62763c-37.343,0-69.00094,13.91514-93.93211,41.51325-24.93116,27.60094-37.4562,62.8545-37.4562,104.716,0,41.4,12.525,76.65356,37.4562,104.716,24.93117,27.60094,56.58916,41.63215,93.93211,41.63215,28.87214,0,54.73192-8.81339,76.764-26.09194l7.07789-5.56605v24.46685h73.51947v-278.314ZM492.04952,956.2704c-38.27158,0-68.30448-32.47054-68.30448-73.87054,0-40.81961,30.0329-72.823,68.30448-72.823,18.66864,0,34.90249,7.07222,48.4694,21.21951,13.45365,14.03122,19.94832,30.84545,19.94832,51.60349C560.46724,923.79986,530.43434,956.2704,492.04952,956.2704Z"/><path d="M915.88119,778.14819C890.95,750.55008,859.292,736.63494,821.94908,736.63494c-28.87213,0-54.50542,8.58124-76.18642,25.51155l-7.07223,5.45V570.78769H664.58775v451.23348h74.10268V998.364l6.95333,5.22065c23.19283,17.27572,48.12965,25.62763,76.30532,25.62763,37.343,0,69.00095-14.03121,93.93211-41.63215,25.16332-28.41066,38.03376-63.66422,38.03376-104.716C953.915,841.34809,941.16342,806.09736,915.88119,778.14819ZM808.15,956.2704c-38.38482,0-68.41773-32.47054-68.41773-73.87054,0-40.81961,30.03291-72.823,68.41773-72.823,18.9008,0,35.0214,7.1883,47.89184,21.21951,13.33475,14.03122,19.94833,30.84545,19.94833,51.60349C875.9902,923.79986,846.18378,956.2704,808.15,956.2704Z"/><path d="M1233.44163,778.96073c-28.06242-28.1785-63.78029-42.32579-106.225-42.32579-42.67119,0-78.62121,14.14729-106.6893,42.32579-28.06242,27.48487-42.32579,62.50627-42.32579,103.90344,0,41.28393,14.26337,76.53749,42.32579,104.59991,28.18133,27.717,64.13136,41.74823,106.6893,41.74823,42.21255,0,78.04366-14.03121,106.225-41.74823,28.40783-28.52673,42.90335-63.66422,42.90335-104.59991C1276.345,841.8124,1261.96836,806.791,1233.44163,778.96073Zm-55.54729,156.08732c-13.5669,14.03121-30.49721,21.22235-50.6777,21.22235-20.407,0-37.56944-7.19114-51.142-21.22235-13.5669-14.26337-20.52022-31.77407-20.52022-52.18388,0-20.29373,6.95332-37.92051,20.52022-52.0678,13.57257-14.14729,30.735-21.21951,51.142-21.21951,20.29373,0,37.343,7.30438,50.6777,21.7999,13.918,13.91513,20.9902,31.30976,20.9902,51.48741C1198.88454,903.1579,1192.0388,920.20429,1177.89434,935.04805Z"/><path d="M1515.86176,570.78769V767.36431l-6.959-5.10174a125.92521,125.92521,0,0,0-76.88289-25.62763c-37.33729,0-68.882,13.91514-93.8132,41.51325-24.93116,27.60094-37.57511,62.8545-37.57511,104.716,0,41.4,12.64395,76.65356,37.57511,104.716,24.93117,27.60094,56.47591,41.63215,93.8132,41.63215,28.991,0,54.73758-8.81339,76.88289-26.09194l6.959-5.56605v24.46685h73.52513V570.78769ZM1446.40217,956.2704c-38.27158,0-68.30448-32.47054-68.30448-73.87054,0-40.81961,30.0329-72.823,68.30448-72.823,18.66864,0,34.90249,7.07222,48.35615,21.21951,13.45365,14.03122,20.06157,30.84545,20.06157,51.60349C1514.81989,923.79986,1484.787,956.2704,1446.40217,956.2704Z"/><path d="M1827.97505,570.78769V767.36431l-6.959-5.10174a125.95331,125.95331,0,0,0-76.88855-25.62763c-37.33729,0-68.99528,13.91514-93.92644,41.51325-24.81792,27.60094-37.4562,62.8545-37.4562,104.716,0,41.4,12.63828,76.65356,37.4562,104.716,24.93116,27.60094,56.58915,41.63215,93.92644,41.63215,28.8778,0,54.73758-8.81339,76.76964-26.09194l7.07789-5.56605v24.46685h73.51947V570.78769ZM1758.5098,956.2704c-38.38482,0-68.41773-32.47054-68.41773-73.87054,0-40.81961,30.03291-72.823,68.41773-72.823,18.5554,0,34.9025,7.07222,48.35615,21.21951,13.45366,14.03122,19.94833,30.84545,19.94833,51.60349C1826.81428,923.79986,1796.77571,956.2704,1758.5098,956.2704Z"/><path d="M2140.08269,743.70717v23.65714l-6.959-5.10174a125.9371,125.9371,0,0,0-76.88288-25.62763c-37.34295,0-69.00095,13.91514-93.93211,41.51325-24.81792,27.60094-37.4562,62.8545-37.4562,104.716,0,41.4,12.63828,76.65356,37.4562,104.716,24.93116,27.60094,56.58916,41.63215,93.93211,41.63215,28.87213,0,54.73192-8.81339,76.76964-26.09194l7.07223-5.56605v24.46685h73.51947v-278.314ZM2070.61743,956.2704c-38.37916,0-68.41773-32.47054-68.41773-73.87054,0-40.81961,30.03857-72.823,68.41773-72.823,18.5554,0,34.90816,7.07222,48.35615,21.21951,13.45366,14.03122,19.94833,30.84545,19.94833,51.60349C2138.92191,923.79986,2108.889,956.2704,2070.61743,956.2704Z"/></svg>