<svg width="87" height="21" viewBox="0 0 87 21" fill="none" xmlns="http://www.w3.org/2000/svg">
<g opacity="0.5">
<g clipPath="url(#clip0_141_925)">
<path d="M3.00891 3.55481C3.00899 3.22818 3.12281 2.91177 3.33083 2.65994C3.53885 2.40811 3.82808 2.23659 4.14882 2.17484C4.46957 2.11309 4.80181 2.16497 5.08845 2.32157C5.3751 2.47817 5.59826 2.7297 5.7196 3.03296L5.8434 3.34074C5.31327 3.72836 4.90228 4.25669 4.65699 4.86588C4.30818 5.72096 4.30202 6.67753 4.6398 7.53703C4.67153 7.61738 4.71909 7.69053 4.77965 7.75215C4.84021 7.81376 4.91253 7.86258 4.99232 7.8957C5.07211 7.92882 5.15775 7.94556 5.24414 7.94494C5.33052 7.94432 5.41591 7.92635 5.49522 7.89209L10.6191 5.68605C10.773 5.61993 10.895 5.49657 10.9595 5.34206C11.024 5.18755 11.0259 5.01401 10.9647 4.85815C10.8009 4.4352 10.5544 4.04914 10.2397 3.72249C9.92497 3.39583 9.54836 3.13513 9.13182 2.95559C8.46264 2.66843 7.71733 2.61041 7.01176 2.79052L6.91719 2.5541C6.68465 1.97242 6.25675 1.48992 5.70705 1.18951C5.15734 0.889097 4.52016 0.789553 3.90502 0.907982C3.28987 1.02641 2.7352 1.35542 2.33632 1.83845C1.93745 2.32149 1.71929 2.92838 1.71934 3.55481V9.45677H1.50441C1.3334 9.45677 1.16939 9.52471 1.04847 9.64563C0.927552 9.76655 0.859619 9.93055 0.859619 10.1016C0.859619 10.2726 0.927552 10.4366 1.04847 10.5575C1.16939 10.6784 1.3334 10.7464 1.50441 10.7464H1.71934V11.0516C1.71934 11.3739 1.71934 11.5631 1.73309 11.7737C1.85517 13.6969 2.89371 15.4722 4.39994 16.6328C4.38774 16.6517 4.37655 16.6712 4.36641 16.6913L3.50669 18.4107C3.43188 18.5635 3.42049 18.7397 3.47502 18.9009C3.52955 19.0621 3.64556 19.1951 3.79779 19.2711C3.95001 19.3471 4.1261 19.3599 4.28769 19.3066C4.44927 19.2533 4.58325 19.1384 4.66043 18.9867L5.49264 17.3232C6.18528 17.6769 6.93721 17.8999 7.71071 17.9809C7.92134 18.0024 8.04944 18.0067 8.26781 18.0153H8.27382C8.91002 18.0393 9.53245 18.054 10.1016 18.054C10.6707 18.054 11.2932 18.0393 11.9293 18.0153H11.9354C12.1537 18.0067 12.2827 18.0024 12.4925 17.9809C13.266 17.8999 14.0179 17.6769 14.7105 17.3232L15.5427 18.9876C15.5806 19.0634 15.633 19.1309 15.697 19.1864C15.761 19.2419 15.8353 19.2842 15.9157 19.311C15.996 19.3378 16.0808 19.3485 16.1653 19.3425C16.2498 19.3365 16.3323 19.3139 16.408 19.276C16.4838 19.2382 16.5514 19.1857 16.6068 19.1217C16.6623 19.0578 16.7047 18.9835 16.7315 18.9031C16.7583 18.8228 16.769 18.7379 16.7629 18.6534C16.7569 18.569 16.7344 18.4865 16.6965 18.4107L15.8368 16.6913C15.8268 16.6713 15.8159 16.6518 15.8041 16.6328C17.3095 15.4722 18.3489 13.696 18.4709 11.7737C18.4838 11.5631 18.4838 11.3739 18.4838 11.0516V11.0189C18.4838 10.9673 18.4838 10.9131 18.4804 10.8641C18.4779 10.8247 18.4739 10.7854 18.4684 10.7464H18.6988C18.8698 10.7464 19.0338 10.6784 19.1547 10.5575C19.2756 10.4366 19.3435 10.2726 19.3435 10.1016C19.3435 9.93055 19.2756 9.76655 19.1547 9.64563C19.0338 9.52471 18.8698 9.45677 18.6988 9.45677H3.00891V3.55481Z" fill="black"/>
<path d="M31.4907 9.02391H27.0819V7.35865H34.3708L29.5661 17.0499H27.4914L31.4907 9.02391Z" fill="#333333"/>
</g>
<path d="M60.2961 7.73741H61.5856V7.09262C61.5856 6.92161 61.6536 6.75761 61.7745 6.63669C61.8954 6.51576 62.0594 6.44783 62.2304 6.44783H64.1648C64.3358 6.44783 64.4998 6.51576 64.6207 6.63669C64.7417 6.75761 64.8096 6.92161 64.8096 7.09262V7.73741H67.3887V5.15825C67.3887 4.47422 67.117 3.8182 66.6333 3.33452C66.1496 2.85083 65.4936 2.5791 64.8096 2.5791H57.0721C56.3881 2.5791 55.7321 2.85083 55.2484 3.33452C54.7647 3.8182 54.493 4.47422 54.493 5.15825V7.73741H57.0721V7.09262C57.0721 6.92161 57.1401 6.75761 57.261 6.63669C57.3819 6.51576 57.5459 6.44783 57.7169 6.44783H59.6513C59.8223 6.44783 59.9863 6.51576 60.1072 6.63669C60.2281 6.75761 60.2961 6.92161 60.2961 7.09262V7.73741ZM55.1378 9.02698C54.2827 9.02698 53.4627 9.36665 52.8581 9.97125C52.2535 10.5759 51.9138 11.3959 51.9138 12.2509V17.4092C51.9138 17.5802 51.9818 17.7442 52.1027 17.8652C52.2236 17.9861 52.3876 18.054 52.5586 18.054C52.7296 18.054 52.8936 17.9861 53.0145 17.8652C53.1355 17.7442 53.2034 17.5802 53.2034 17.4092V14.1853H68.6783V17.4092C68.6783 17.5802 68.7462 17.7442 68.8672 17.8652C68.9881 17.9861 69.1521 18.054 69.3231 18.054C69.4941 18.054 69.6581 17.9861 69.779 17.8652C69.9 17.7442 69.9679 17.5802 69.9679 17.4092V12.2509C69.9679 11.3959 69.6282 10.5759 69.0236 9.97125C68.419 9.36665 67.599 9.02698 66.7439 9.02698H55.1378Z" fill="black"/>
<path d="M85.0633 12.0814C85.0633 12.7093 84.9041 13.2781 84.5856 13.7876C84.2762 14.2972 83.8531 14.7022 83.3162 15.0025C82.7884 15.3028 82.1878 15.4529 81.5144 15.4529C80.7864 15.4529 80.154 15.2755 79.6171 14.9206C79.0893 14.5657 78.6798 14.0561 78.3886 13.3918C78.0975 12.7275 77.9519 11.9313 77.9519 11.0031C77.9519 9.82924 78.102 8.83736 78.4023 8.02748C78.7117 7.2085 79.1485 6.59427 79.7127 6.18478C80.2769 5.76619 80.9411 5.55689 81.7055 5.55689C82.3152 5.55689 82.8748 5.68884 83.3844 5.95273C83.9031 6.21663 84.3399 6.59427 84.6948 7.08566L83.6438 8.23223C83.4254 7.89554 83.1433 7.63164 82.7975 7.44055C82.4517 7.24035 82.0786 7.14025 81.6782 7.14025C81.2687 7.14025 80.9138 7.24945 80.6135 7.46785C80.3133 7.68624 80.0812 8.00473 79.9174 8.42332C79.7536 8.83281 79.6626 9.32875 79.6444 9.91114C79.7718 9.69274 79.9356 9.5062 80.1358 9.3515C80.336 9.1877 80.568 9.06486 80.8319 8.98296C81.0958 8.89196 81.3779 8.84646 81.6782 8.84646C82.3243 8.84646 82.9021 8.99206 83.4117 9.28325C83.9213 9.56535 84.3217 9.95209 84.6129 10.4435C84.9132 10.9258 85.0633 11.4717 85.0633 12.0814ZM81.5144 13.9105C81.842 13.9105 82.1423 13.8286 82.4153 13.6648C82.6883 13.4919 82.9067 13.269 83.0705 12.996C83.2343 12.7139 83.3162 12.409 83.3162 12.0814C83.3162 11.7538 83.2343 11.4581 83.0705 11.1942C82.9067 10.9212 82.6883 10.7074 82.4153 10.5527C82.1514 10.3889 81.8557 10.307 81.5281 10.307C81.2005 10.307 80.9002 10.3889 80.6272 10.5527C80.3542 10.7074 80.1358 10.9212 79.972 11.1942C79.8173 11.4581 79.74 11.7538 79.74 12.0814C79.74 12.409 79.8219 12.7139 79.9857 12.996C80.1495 13.269 80.3679 13.4919 80.6408 13.6648C80.9138 13.8286 81.205 13.9105 81.5144 13.9105Z" fill="#333333"/>
</g>
<defs>
<clipPath id="clip0_141_925">
<rect width="34.6997" height="20.6332" fill="white"/>
</clipPath>
</defs>
</svg>
